<svg width="50" height="50" viewBox="0 0 50 50" fill="none" xmlns="http://www.w3.org/2000/svg">
<rect width="50" height="50" rx="25" fill="#093045"/>
<path d="M36 17.5002V32.5C36 33.3513 35.4323 34 34.6875 34H33.375V20.3869L25.5 26.8518L17.625 20.3869V34H16.3125C15.5677 34 15 33.3513 15 32.5V17.5002C15 17.0742 15.1404 16.6992 15.376 16.4337C15.4987 16.2934 15.6449 16.1827 15.8057 16.1082C15.9666 16.0338 16.139 15.997 16.3125 16.0002H16.7502L25.5 23.2504L34.2498 16.0002H34.6875C35.0602 16.0002 35.3884 16.1607 35.624 16.4337C35.8596 16.6992 36 17.0742 36 17.5002Z" fill="white"/>
</svg>
