<svg width="50" height="50" viewBox="0 0 50 50" fill="none" xmlns="http://www.w3.org/2000/svg">
<rect width="50" height="50" rx="25" fill="#093045"/>
<path d="M32.0074 19.4211C31.8715 19.4192 31.737 19.393 31.6103 19.3438C31.5493 19.3181 31.4906 19.287 31.435 19.251C31.378 19.2128 31.3245 19.1697 31.2752 19.1221C31.0831 18.9268 30.9757 18.6638 30.9761 18.3899C30.9752 18.3223 30.9821 18.2548 30.9967 18.1888C31.0077 18.1231 31.0268 18.059 31.0535 17.998C31.079 17.9352 31.1101 17.8749 31.1463 17.8175C31.1849 17.7626 31.2281 17.7108 31.2752 17.6629C31.3246 17.6153 31.378 17.5721 31.435 17.5339C31.4906 17.4977 31.5493 17.4665 31.6103 17.4406C31.6739 17.4147 31.7394 17.394 31.8063 17.3787C31.9724 17.3464 32.1439 17.3554 32.3058 17.405C32.4676 17.4545 32.6148 17.5431 32.7344 17.6629C32.7828 17.7096 32.826 17.7615 32.8633 17.8175C32.901 17.8748 32.9337 17.9352 32.9613 17.998C32.9854 18.0599 33.0044 18.1237 33.018 18.1888C33.0298 18.2552 33.0367 18.3224 33.0386 18.3899C33.0391 18.526 33.0124 18.6609 32.9602 18.7866C32.9079 18.9123 32.8312 19.0263 32.7344 19.1221C32.6876 19.1707 32.6356 19.2139 32.5792 19.251C32.522 19.2871 32.4618 19.3182 32.3992 19.3438C32.3382 19.3705 32.2741 19.3895 32.2085 19.4005C32.1424 19.4151 32.075 19.422 32.0074 19.4211ZM25.5002 30.1379C24.385 30.1379 23.2949 29.8072 22.3676 29.1876C21.4404 28.568 20.7177 27.6874 20.291 26.6571C19.8642 25.6268 19.7526 24.4931 19.9702 23.3993C20.1878 22.3056 20.7248 21.3009 21.5134 20.5124C22.302 19.7239 23.3067 19.1869 24.4005 18.9694C25.4943 18.7519 26.628 18.8637 27.6582 19.2905C28.6885 19.7173 29.5691 20.4401 30.1886 21.3674C30.808 22.2947 31.1386 23.3849 31.1385 24.5C31.1369 25.9949 30.5423 27.4281 29.4853 28.4852C28.4282 29.5422 26.9951 30.1368 25.5002 30.1384V30.1379ZM25.5002 20.408C24.6908 20.4079 23.8996 20.6478 23.2266 21.0974C22.5537 21.547 22.0291 22.186 21.7193 22.9337C21.4095 23.6815 21.3284 24.5042 21.4862 25.298C21.6441 26.0918 22.0337 26.821 22.606 27.3933C23.1783 27.9657 23.9074 28.3554 24.7012 28.5134C25.4949 28.6713 26.3177 28.5903 27.0655 28.2806C27.8132 27.9709 28.4523 27.4464 28.902 26.7735C29.3517 26.1006 29.5917 25.3094 29.5917 24.5C29.5906 23.4152 29.1592 22.3751 28.3921 21.6079C27.6251 20.8408 26.585 20.4093 25.5002 20.408Z" fill="white"/>
<path d="M29.1094 36.6172H21.8906C19.6351 36.6145 17.4726 35.7172 15.8777 34.1223C14.2828 32.5274 13.3855 30.365 13.3828 28.1094V20.8906C13.3855 18.6351 14.2828 16.4726 15.8777 14.8777C17.4726 13.2828 19.6351 12.3855 21.8906 12.3828H29.1094C31.365 12.3855 33.5274 13.2828 35.1223 14.8777C36.7172 16.4726 37.6145 18.6351 37.6172 20.8906V28.1094C37.6145 30.365 36.7172 32.5274 35.1223 34.1223C33.5274 35.7172 31.365 36.6145 29.1094 36.6172ZM21.8906 13.9297C20.0451 13.9317 18.2757 14.6658 16.9708 15.9708C15.6658 17.2757 14.9317 19.0451 14.9297 20.8906V28.1094C14.9317 29.9549 15.6658 31.7243 16.9708 33.0292C18.2757 34.3342 20.0451 35.0683 21.8906 35.0703H29.1094C30.9549 35.0683 32.7243 34.3342 34.0292 33.0292C35.3342 31.7243 36.0683 29.9549 36.0703 28.1094V20.8906C36.0683 19.0451 35.3342 17.2757 34.0292 15.9708C32.7243 14.6658 30.9549 13.9317 29.1094 13.9297H21.8906Z" fill="white"/>
<path d="M32.0069 19.4211C31.871 19.4192 31.7365 19.393 31.6098 19.3438C31.5488 19.3181 31.4901 19.287 31.4345 19.251C31.3775 19.2128 31.324 19.1697 31.2747 19.1221C31.0826 18.9268 30.9752 18.6638 30.9756 18.3899C30.9747 18.3223 30.9817 18.2548 30.9963 18.1888C31.0072 18.1231 31.0263 18.059 31.053 17.998C31.0785 17.9352 31.1096 17.8749 31.1458 17.8175C31.1845 17.7626 31.2276 17.7108 31.2747 17.6629C31.3241 17.6153 31.3776 17.5721 31.4345 17.5339C31.4901 17.4977 31.5488 17.4665 31.6098 17.4406C31.6734 17.4147 31.7389 17.394 31.8058 17.3787C31.9719 17.3464 32.1435 17.3554 32.3053 17.405C32.4671 17.4545 32.6143 17.5431 32.7339 17.6629C32.7823 17.7096 32.8255 17.7615 32.8628 17.8175C32.9005 17.8748 32.9332 17.9352 32.9608 17.998C32.985 18.0599 33.0039 18.1237 33.0175 18.1888C33.0294 18.2552 33.0362 18.3224 33.0381 18.3899C33.0386 18.526 33.0119 18.6609 32.9597 18.7866C32.9074 18.9123 32.8307 19.0263 32.7339 19.1221C32.6871 19.1707 32.6351 19.2139 32.5787 19.251C32.5216 19.2871 32.4613 19.3182 32.3988 19.3438C32.3377 19.3705 32.2737 19.3895 32.208 19.4005C32.142 19.4151 32.0745 19.422 32.0069 19.4211ZM25.4997 30.1379C24.3845 30.1379 23.2944 29.8072 22.3671 29.1876C21.4399 28.568 20.7172 27.6874 20.2905 26.6571C19.8637 25.6268 19.7521 24.4931 19.9697 23.3993C20.1873 22.3056 20.7244 21.3009 21.5129 20.5124C22.3015 19.7239 23.3062 19.1869 24.4 18.9694C25.4938 18.7519 26.6275 18.8637 27.6578 19.2905C28.688 19.7173 29.5686 20.4401 30.1881 21.3674C30.8076 22.2947 31.1382 23.3849 31.138 24.5C31.1364 25.9949 30.5418 27.4281 29.4848 28.4852C28.4278 29.5422 26.9946 30.1368 25.4997 30.1384V30.1379ZM25.4997 20.408C24.6903 20.4079 23.8991 20.6478 23.2262 21.0974C22.5532 21.547 22.0286 22.186 21.7188 22.9337C21.409 23.6815 21.3279 24.5042 21.4857 25.298C21.6436 26.0918 22.0333 26.821 22.6055 27.3933C23.1778 27.9657 23.9069 28.3554 24.7007 28.5134C25.4945 28.6713 26.3172 28.5903 27.065 28.2806C27.8127 27.9709 28.4519 27.4464 28.9015 26.7735C29.3512 26.1006 29.5912 25.3094 29.5912 24.5C29.5901 23.4152 29.1587 22.3751 28.3916 21.6079C27.6246 20.8408 26.5845 20.4093 25.4997 20.408Z" fill="white"/>
<path d="M29.1094 36.6172H21.8906C19.6351 36.6145 17.4726 35.7172 15.8777 34.1223C14.2828 32.5274 13.3855 30.365 13.3828 28.1094V20.8906C13.3855 18.6351 14.2828 16.4726 15.8777 14.8777C17.4726 13.2828 19.6351 12.3855 21.8906 12.3828H29.1094C31.365 12.3855 33.5274 13.2828 35.1223 14.8777C36.7172 16.4726 37.6145 18.6351 37.6172 20.8906V28.1094C37.6145 30.365 36.7172 32.5274 35.1223 34.1223C33.5274 35.7172 31.365 36.6145 29.1094 36.6172ZM21.8906 13.9297C20.0451 13.9317 18.2757 14.6658 16.9708 15.9708C15.6658 17.2757 14.9317 19.0451 14.9297 20.8906V28.1094C14.9317 29.9549 15.6658 31.7243 16.9708 33.0292C18.2757 34.3342 20.0451 35.0683 21.8906 35.0703H29.1094C30.9549 35.0683 32.7243 34.3342 34.0292 33.0292C35.3342 31.7243 36.0683 29.9549 36.0703 28.1094V20.8906C36.0683 19.0451 35.3342 17.2757 34.0292 15.9708C32.7243 14.6658 30.9549 13.9317 29.1094 13.9297H21.8906Z" fill="white"/>
</svg>
