<svg width="50" height="50" viewBox="0 0 50 50" fill="none" xmlns="http://www.w3.org/2000/svg">
<rect width="50" height="50" rx="25" fill="#093045"/>
<path d="M17 17.9747C17 17.4023 17.1914 16.9301 17.5743 16.5581C17.9572 16.186 18.455 16 19.0676 16C19.6692 16 20.156 16.1832 20.528 16.5495C20.9109 16.9273 21.1023 17.4195 21.1023 18.0263C21.1023 18.5758 20.9164 19.0337 20.5444 19.4C20.1615 19.7778 19.6583 19.9667 19.0347 19.9667H19.0183C18.4167 19.9667 17.9299 19.7778 17.5579 19.4C17.186 19.0222 17 18.5471 17 17.9747ZM17.2133 33V21.5293H20.8562V33H17.2133ZM22.8745 33H26.5174V26.5949C26.5174 26.1943 26.5611 25.8852 26.6486 25.6677C26.8018 25.2784 27.0343 24.9493 27.346 24.6803C27.6578 24.4113 28.0489 24.2768 28.5193 24.2768C29.7445 24.2768 30.3571 25.1411 30.3571 26.8697V33H34V26.4232C34 24.729 33.6171 23.4439 32.8514 22.5682C32.0856 21.6924 31.0737 21.2545 29.8156 21.2545C28.4044 21.2545 27.305 21.8899 26.5174 23.1606V23.1949H26.501L26.5174 23.1606V21.5293H22.8745C22.8964 21.8956 22.9073 23.0347 22.9073 24.9465C22.9073 26.8582 22.8964 29.5427 22.8745 33Z" fill="white"/>
</svg>
