<svg width="50" height="50" viewBox="0 0 50 50" fill="none" xmlns="http://www.w3.org/2000/svg">
<path d="M25 24.1449C22.1589 24.1452 19.3814 23.4374 17.0189 22.1111C14.6564 20.7848 12.815 18.8994 11.7274 16.6935C10.6399 14.4876 10.3552 12.0602 10.9092 9.71823C11.4632 7.3763 12.8312 5.22504 14.84 3.53652C16.8489 1.848 19.4084 0.698045 22.1949 0.232094C24.9814 -0.233857 27.8698 0.00512221 30.4947 0.918807C33.1196 1.83249 35.3632 3.37984 36.9416 5.36518C38.5201 7.35052 39.3627 9.68466 39.3627 12.0724C39.359 15.273 37.8447 18.3417 35.152 20.605C32.4594 22.8683 28.8083 24.1414 25 24.1449ZM25 3.48149C22.9777 3.48116 21.0007 3.98487 19.3191 4.92891C17.6374 5.87296 16.3267 7.21492 15.5526 8.78507C14.7785 10.3552 14.5759 12.0831 14.9703 13.75C15.3648 15.417 16.3386 16.9482 17.7685 18.15C19.1985 19.3518 21.0204 20.1702 23.0039 20.5016C24.9874 20.8331 27.0432 20.6628 28.9115 20.0123C30.7798 19.3617 32.3766 18.2601 33.4999 16.8468C34.6231 15.4335 35.2225 13.772 35.2221 12.0724C35.219 9.79478 34.141 7.61115 32.2247 6.0006C30.3083 4.39005 27.7101 3.4841 25 3.48149ZM47.9297 50H2.07027L0 48.2601C-4.89212e-08 45.5009 0.646645 42.7688 1.90301 40.2196C3.15938 37.6705 5.00087 35.3543 7.32233 33.4033C9.64379 31.4523 12.3998 29.9046 15.4329 28.8487C18.4661 27.7928 21.717 27.2494 25 27.2494C28.283 27.2494 31.5339 27.7928 34.5671 28.8487C37.6002 29.9046 40.3562 31.4523 42.6777 33.4033C44.9991 35.3543 46.8406 37.6705 48.097 40.2196C49.3534 42.7688 50 45.5009 50 48.2601L47.9297 50ZM4.23848 46.5202H45.7615C45.2552 42.1878 42.8493 38.1686 39.0118 35.2447C35.1743 32.3208 30.1798 30.7013 25 30.7013C19.8202 30.7013 14.8257 32.3208 10.9882 35.2447C7.15072 38.1686 4.74477 42.1878 4.23848 46.5202Z" fill="white"/>
</svg>
