<svg width="50" height="50" viewBox="0 0 50 50" fill="none" xmlns="http://www.w3.org/2000/svg">
<rect width="50" height="50" rx="25" fill="#093045"/>
<path d="M29.6 27.025C29.4 26.925 28.1 26.325 27.9 26.225C27.7 26.125 27.5 26.125 27.3 26.325C27.1 26.525 26.7 27.125 26.5 27.325C26.4 27.525 26.2 27.525 26 27.425C25.3 27.125 24.6 26.725 24 26.225C23.5 25.725 23 25.125 22.6 24.525C22.5 24.325 22.6 24.125 22.7 24.025C22.8 23.925 22.9 23.725 23.1 23.625C23.2 23.525 23.3 23.325 23.3 23.225C23.4 23.125 23.4 22.925 23.3 22.825C23.2 22.725 22.7 21.525 22.5 21.025C22.4 20.325 22.2 20.325 22 20.325H21.5C21.3 20.325 21 20.525 20.9 20.625C20.3 21.225 20 21.925 20 22.725C20.1 23.625 20.4 24.525 21 25.325C22.1 26.925 23.5 28.225 25.2 29.025C25.7 29.225 26.1 29.425 26.6 29.525C27.1 29.725 27.6 29.725 28.2 29.625C28.9 29.525 29.5 29.025 29.9 28.425C30.1 28.025 30.1 27.625 30 27.225L29.6 27.025ZM32.1 17.925C28.2 14.025 21.9 14.025 18 17.925C14.8 21.125 14.2 26.025 16.4 29.925L15 35.025L20.3 33.625C21.8 34.425 23.4 34.825 25 34.825C30.5 34.825 34.9 30.425 34.9 24.925C35 22.325 33.9 19.825 32.1 17.925ZM29.4 31.925C28.1 32.725 26.6 33.225 25 33.225C23.5 33.225 22.1 32.825 20.8 32.125L20.5 31.925L17.4 32.725L18.2 29.725L18 29.425C15.6 25.425 16.8 20.425 20.7 17.925C24.6 15.425 29.6 16.725 32 20.525C34.4 24.425 33.3 29.525 29.4 31.925Z" fill="white"/>
</svg>
