<svg width="50" height="50" viewBox="0 0 50 50" fill="none" xmlns="http://www.w3.org/2000/svg">
<rect width="50" height="50" rx="25" fill="#093045"/>
<path d="M29.1164 22.7327C29.6684 22.1807 30.2164 20.8927 27.9164 22.4567C25.7678 23.9354 23.6047 25.3928 21.4274 26.8287C21.0958 26.9786 20.7374 27.06 20.3736 27.0679C20.0098 27.0758 19.6481 27.0101 19.3104 26.8747C17.9304 26.4607 16.3194 25.9087 16.3194 25.9087C16.3194 25.9087 15.2194 25.2177 17.1024 24.4817C17.1024 24.4817 25.0634 21.2147 27.8244 20.0637C28.8824 19.6037 32.4714 18.1317 32.4714 18.1317C32.4714 18.1317 34.1284 17.4867 33.9904 19.0517C33.9444 19.6957 33.5764 21.9517 33.2084 24.3897C32.6554 27.8407 32.0574 31.6147 32.0574 31.6147C32.0574 31.6147 31.9654 32.6727 31.1834 32.8567C30.3462 32.8425 29.5374 32.5513 28.8834 32.0287C28.6994 31.8907 25.4324 29.8197 24.2354 28.8077C24.1136 28.7252 24.0147 28.6133 23.9478 28.4823C23.8809 28.3513 23.8483 28.2055 23.8528 28.0585C23.8574 27.9115 23.8991 27.7681 23.9741 27.6415C24.049 27.515 24.1547 27.4094 24.2814 27.3347C25.9231 25.8326 27.5351 24.2983 29.1164 22.7327Z" fill="white"/>
</svg>
